<mxfile host="app.diagrams.net" modified="2023-10-08T05:05:25.259Z" agent="Mozilla/5.0 (Windows NT 10.0; Win64; x64) AppleWebKit/537.36 (KHTML, like Gecko) Chrome/116.0.0.0 Safari/537.36 OPR/102.0.0.0" etag="L7uPpTW00hdVDy82XFML" version="22.0.4" type="google">
  <diagram name="Page-1" id="-6Ldh91mHzzuHPCjlBvJ">
    <mxGraphModel grid="1" page="1" gridSize="10" guides="1" tooltips="1" connect="1" arrows="1" fold="1" pageScale="1" pageWidth="850" pageHeight="1100" math="0" shadow="0">
      <root>
        <mxCell id="0" />
        <mxCell id="1" parent="0" />
        <mxCell id="yZ5kGH4DIY8YMsoJgsDy-3" style="edgeStyle=orthogonalEdgeStyle;rounded=0;orthogonalLoop=1;jettySize=auto;html=1;entryX=0.5;entryY=0;entryDx=0;entryDy=0;" edge="1" parent="1" source="yZ5kGH4DIY8YMsoJgsDy-1" target="yZ5kGH4DIY8YMsoJgsDy-2">
          <mxGeometry relative="1" as="geometry" />
        </mxCell>
        <mxCell id="yZ5kGH4DIY8YMsoJgsDy-1" value="bắt đầu" style="ellipse;whiteSpace=wrap;html=1;" vertex="1" parent="1">
          <mxGeometry x="365" y="30" width="120" height="80" as="geometry" />
        </mxCell>
        <mxCell id="yZ5kGH4DIY8YMsoJgsDy-5" style="edgeStyle=orthogonalEdgeStyle;rounded=0;orthogonalLoop=1;jettySize=auto;html=1;entryX=0.5;entryY=0;entryDx=0;entryDy=0;" edge="1" parent="1" source="yZ5kGH4DIY8YMsoJgsDy-2" target="yZ5kGH4DIY8YMsoJgsDy-4">
          <mxGeometry relative="1" as="geometry" />
        </mxCell>
        <mxCell id="yZ5kGH4DIY8YMsoJgsDy-2" value="nhập vào&amp;nbsp;&lt;br&gt;N = số xe" style="rounded=0;whiteSpace=wrap;html=1;" vertex="1" parent="1">
          <mxGeometry x="365" y="180" width="120" height="90" as="geometry" />
        </mxCell>
        <mxCell id="yZ5kGH4DIY8YMsoJgsDy-7" style="edgeStyle=orthogonalEdgeStyle;rounded=0;orthogonalLoop=1;jettySize=auto;html=1;entryX=1;entryY=0.5;entryDx=0;entryDy=0;" edge="1" parent="1" source="yZ5kGH4DIY8YMsoJgsDy-4" target="yZ5kGH4DIY8YMsoJgsDy-6">
          <mxGeometry relative="1" as="geometry" />
        </mxCell>
        <mxCell id="yZ5kGH4DIY8YMsoJgsDy-22" style="edgeStyle=orthogonalEdgeStyle;rounded=0;orthogonalLoop=1;jettySize=auto;html=1;entryX=0.75;entryY=0;entryDx=0;entryDy=0;" edge="1" parent="1" source="yZ5kGH4DIY8YMsoJgsDy-4" target="yZ5kGH4DIY8YMsoJgsDy-2">
          <mxGeometry relative="1" as="geometry">
            <mxPoint x="460" y="120" as="targetPoint" />
            <Array as="points">
              <mxPoint x="680" y="440" />
              <mxPoint x="680" y="150" />
              <mxPoint x="455" y="150" />
            </Array>
          </mxGeometry>
        </mxCell>
        <mxCell id="yZ5kGH4DIY8YMsoJgsDy-4" value="kiểm số xe thỏa các điều kiện&lt;br&gt;- N là số nguyên&lt;br&gt;- 0&amp;lt;= N &amp;lt;= 9999" style="rhombus;whiteSpace=wrap;html=1;" vertex="1" parent="1">
          <mxGeometry x="293" y="350" width="265" height="180" as="geometry" />
        </mxCell>
        <mxCell id="Ck5Jd1HiMi1KxYjqsgbG-2" style="edgeStyle=orthogonalEdgeStyle;rounded=0;orthogonalLoop=1;jettySize=auto;html=1;entryX=0.5;entryY=0;entryDx=0;entryDy=0;" edge="1" parent="1" source="yZ5kGH4DIY8YMsoJgsDy-6" target="Ck5Jd1HiMi1KxYjqsgbG-3">
          <mxGeometry relative="1" as="geometry">
            <mxPoint x="90" y="590" as="targetPoint" />
          </mxGeometry>
        </mxCell>
        <mxCell id="yZ5kGH4DIY8YMsoJgsDy-6" value="tính số nút của số xe&lt;br&gt;so4 = N% 10 , N/10&lt;br&gt;so3 = N%10, N/10&lt;br&gt;so2 = N % 10, N/10&lt;br&gt;so1 = N&amp;nbsp;&lt;br&gt;soNut = (so1 + so2 + so3 + so4 )%10&amp;nbsp;" style="rounded=0;whiteSpace=wrap;html=1;" vertex="1" parent="1">
          <mxGeometry x="-20" y="377.5" width="220" height="125" as="geometry" />
        </mxCell>
        <mxCell id="yZ5kGH4DIY8YMsoJgsDy-23" value="nhập lại số không thỏa điều kiện" style="rounded=0;whiteSpace=wrap;html=1;" vertex="1" parent="1">
          <mxGeometry x="620" y="415" width="120" height="60" as="geometry" />
        </mxCell>
        <mxCell id="Ck5Jd1HiMi1KxYjqsgbG-3" value="xuất ra kết quả&amp;nbsp;&lt;br&gt;soNut" style="shape=parallelogram;perimeter=parallelogramPerimeter;whiteSpace=wrap;html=1;fixedSize=1;" vertex="1" parent="1">
          <mxGeometry x="30" y="620" width="120" height="60" as="geometry" />
        </mxCell>
      </root>
    </mxGraphModel>
  </diagram>
</mxfile>
